<svg xmlns="http://www.w3.org/2000/svg" viewBox="0 0 512 512" width="40px" height="40px">
  <path fill="#FFFFFF" d="M405.3 0H106.7C47.9 0 0 47.9 0 106.7v298.7C0 464.1 47.9 512 106.7 512h298.7C464.1 512 512 464.1 512 405.3V106.7C512 47.9 464.1 0 405.3 0zm91.6 405.3c0 50.5-41.1 91.6-91.6 91.6H106.7c-50.5 0-91.6-41.1-91.6-91.6V106.7c0-50.5 41.1-91.6 91.6-91.6h298.7c50.5 0 91.6 41.1 91.6 91.6v298.7zM256 128c-70.7 0-128 57.3-128 128s57.3 128 128 128 128-57.3 128-128-57.3-128-128-128zm0 213.3c-41.4 0-75.3-33.9-75.3-75.3s33.9-75.3 75.3-75.3 75.3 33.9 75.3 75.3-33.9 75.3-75.3 75.3zm133.5-262.6c-8.8 0-15.9 7.1-15.9 15.9s7.1 15.9 15.9 15.9 15.9-7.1 15.9-15.9-7.1-15.9-15.9-15.9z"/>
</svg>
